<mxfile host="app.diagrams.net" modified="2021-03-30T19:41:17.265Z" agent="5.0 (Windows)" etag="aebsGTHh8kt0vuBpgEzF" version="14.5.3" type="github">
  <diagram name="Page-1" id="822b0af5-4adb-64df-f703-e8dfc1f81529">
    <mxGraphModel dx="1970" dy="1268" grid="1" gridSize="10" guides="1" tooltips="1" connect="1" arrows="1" fold="1" page="1" pageScale="1" pageWidth="1100" pageHeight="850" background="#114B5F" math="0" shadow="1">
      <root>
        <mxCell id="0" />
        <mxCell id="1" parent="0" />
        <mxCell id="hiVBW5uq49wSX4w3Utvu-95" value="" style="rounded=0;whiteSpace=wrap;html=1;sketch=0;strokeWidth=4;gradientColor=none;fontColor=#E4FDE1;fillColor=none;" vertex="1" parent="1">
          <mxGeometry x="100" y="10" width="1870" height="1040" as="geometry" />
        </mxCell>
        <mxCell id="hiVBW5uq49wSX4w3Utvu-77" value="" style="rounded=1;whiteSpace=wrap;html=1;sketch=0;strokeWidth=2;gradientColor=none;fontColor=#E4FDE1;fillColor=#9AC7BF;strokeColor=#FFFFFF;" vertex="1" parent="1">
          <mxGeometry x="910" y="740" width="1020" height="260" as="geometry" />
        </mxCell>
        <mxCell id="hiVBW5uq49wSX4w3Utvu-39" value="" style="rounded=1;whiteSpace=wrap;html=1;sketch=0;strokeWidth=2;gradientColor=none;fontColor=#E4FDE1;fillColor=#9AC7BF;strokeColor=#FFFFFF;" vertex="1" parent="1">
          <mxGeometry x="130" y="80" width="730" height="490" as="geometry" />
        </mxCell>
        <mxCell id="7d933b09d9755ecc-9" value="" style="verticalLabelPosition=bottom;aspect=fixed;html=1;verticalAlign=top;strokeColor=none;shape=mxgraph.citrix.tower_server;rounded=0;shadow=0;comic=0;fontFamily=Verdana;fillColor=#F45B69;fontColor=#E4FDE1;" parent="1" vertex="1">
          <mxGeometry x="378.75" y="220" width="68.82" height="90" as="geometry" />
        </mxCell>
        <mxCell id="7d933b09d9755ecc-34" value="" style="verticalLabelPosition=bottom;aspect=fixed;html=1;verticalAlign=top;strokeColor=none;shape=mxgraph.citrix.tower_server;rounded=0;shadow=0;comic=0;fontFamily=Verdana;fillColor=#F45B69;fontColor=#E4FDE1;" parent="1" vertex="1">
          <mxGeometry x="378.75" y="450" width="65" height="85" as="geometry" />
        </mxCell>
        <mxCell id="hiVBW5uq49wSX4w3Utvu-10" value="" style="verticalLabelPosition=bottom;aspect=fixed;html=1;verticalAlign=top;strokeColor=none;shape=mxgraph.citrix.tower_server;rounded=0;shadow=0;comic=0;fontFamily=Verdana;fillColor=#F45B69;fontColor=#E4FDE1;" vertex="1" parent="1">
          <mxGeometry x="740" y="220" width="65" height="85" as="geometry" />
        </mxCell>
        <mxCell id="hiVBW5uq49wSX4w3Utvu-11" value="" style="verticalLabelPosition=bottom;aspect=fixed;html=1;verticalAlign=top;strokeColor=none;shape=mxgraph.citrix.tower_server;rounded=0;shadow=0;comic=0;fontFamily=Verdana;fillColor=#F45B69;fontColor=#E4FDE1;" vertex="1" parent="1">
          <mxGeometry x="740" y="465" width="65" height="85" as="geometry" />
        </mxCell>
        <mxCell id="hiVBW5uq49wSX4w3Utvu-29" value="&lt;div style=&quot;font-size: 14px&quot;&gt;&lt;font style=&quot;font-size: 14px&quot; color=&quot;#1A1A1A&quot;&gt;&lt;span style=&quot;background-color: transparent&quot;&gt;&lt;b&gt;NIG - IS GSLITE&lt;/b&gt;&lt;br&gt;&lt;/span&gt;&lt;/font&gt;&lt;/div&gt;&lt;div style=&quot;font-size: 14px&quot;&gt;&lt;font style=&quot;font-size: 14px&quot; color=&quot;#1A1A1A&quot;&gt;&lt;span style=&quot;background-color: transparent&quot;&gt;&lt;b&gt;------------------------------------------&lt;/b&gt;&lt;/span&gt;&lt;/font&gt;&lt;/div&gt;&lt;div style=&quot;font-size: 14px&quot;&gt;&lt;font style=&quot;font-size: 14px&quot; color=&quot;#1A1A1A&quot;&gt;&lt;span style=&quot;background-color: transparent&quot;&gt;&lt;b&gt;LIMNIGSMWV05&lt;/b&gt;&lt;br&gt;&lt;/span&gt;&lt;/font&gt;&lt;/div&gt;&lt;div style=&quot;font-size: 14px&quot;&gt;&lt;font style=&quot;font-size: 14px&quot; color=&quot;#1A1A1A&quot;&gt;&lt;span style=&quot;background-color: transparent&quot;&gt;&lt;b&gt;IP: 172.17.55.101&lt;/b&gt;&lt;/span&gt;&lt;/font&gt;&lt;/div&gt;&lt;div style=&quot;font-size: 14px&quot;&gt;&lt;font style=&quot;font-size: 14px&quot; color=&quot;#1A1A1A&quot;&gt;&lt;span style=&quot;background-color: transparent&quot;&gt;&lt;b&gt;NIG: 4.3&lt;/b&gt;&lt;/span&gt;&lt;/font&gt;&lt;/div&gt;&lt;div style=&quot;font-size: 14px&quot;&gt;&lt;font style=&quot;font-size: 14px&quot; color=&quot;#1A1A1A&quot;&gt;&lt;span style=&quot;background-color: transparent&quot;&gt;&lt;b&gt;JBOSS: 6.1&lt;/b&gt;&lt;/span&gt;&lt;/font&gt;&lt;/div&gt;&lt;div style=&quot;font-size: 14px&quot;&gt;&lt;font style=&quot;font-size: 14px&quot; color=&quot;#1A1A1A&quot;&gt;&lt;span style=&quot;background-color: transparent&quot;&gt;&lt;b&gt;SERVICE: APLICACIÓN WEB&lt;/b&gt;&lt;/span&gt;&lt;/font&gt;&lt;/div&gt;&lt;div style=&quot;font-size: 14px&quot;&gt;&lt;font style=&quot;font-size: 14px&quot; color=&quot;#1A1A1A&quot;&gt;&lt;span style=&quot;background-color: transparent&quot;&gt;&lt;b&gt;SO: RED HAT 7&lt;br&gt;&lt;/b&gt;&lt;/span&gt;&lt;/font&gt;&lt;/div&gt;" style="text;html=1;align=center;verticalAlign=middle;whiteSpace=wrap;rounded=0;sketch=0;fontColor=#E4FDE1;strokeColor=#000000;strokeWidth=2;" vertex="1" parent="1">
          <mxGeometry x="170" y="110" width="250" height="150" as="geometry" />
        </mxCell>
        <mxCell id="hiVBW5uq49wSX4w3Utvu-30" value="" style="shape=image;html=1;verticalAlign=top;verticalLabelPosition=bottom;labelBackgroundColor=#ffffff;imageAspect=0;aspect=fixed;image=https://cdn0.iconfinder.com/data/icons/flat-round-system/512/redhat-128.png;rounded=0;sketch=0;strokeColor=#000000;strokeWidth=2;fillColor=none;gradientColor=none;fontColor=#E4FDE1;" vertex="1" parent="1">
          <mxGeometry x="430" y="270" width="40" height="40" as="geometry" />
        </mxCell>
        <mxCell id="hiVBW5uq49wSX4w3Utvu-31" value="" style="shape=image;html=1;verticalAlign=top;verticalLabelPosition=bottom;labelBackgroundColor=#ffffff;imageAspect=0;aspect=fixed;image=https://cdn0.iconfinder.com/data/icons/flat-round-system/512/redhat-128.png;rounded=0;sketch=0;strokeColor=#000000;strokeWidth=2;fillColor=none;gradientColor=none;fontColor=#E4FDE1;" vertex="1" parent="1">
          <mxGeometry x="430" y="510" width="40" height="40" as="geometry" />
        </mxCell>
        <mxCell id="hiVBW5uq49wSX4w3Utvu-33" value="&lt;div style=&quot;font-size: 14px&quot;&gt;&lt;font style=&quot;font-size: 14px&quot; color=&quot;#1A1A1A&quot;&gt;&lt;span style=&quot;background-color: transparent&quot;&gt;&lt;b&gt;NIG - IS GSLITE&lt;/b&gt;&lt;br&gt;&lt;/span&gt;&lt;/font&gt;&lt;/div&gt;&lt;div style=&quot;font-size: 14px&quot;&gt;&lt;font style=&quot;font-size: 14px&quot; color=&quot;#1A1A1A&quot;&gt;&lt;span style=&quot;background-color: transparent&quot;&gt;&lt;b&gt;------------------------------------------&lt;/b&gt;&lt;/span&gt;&lt;/font&gt;&lt;/div&gt;&lt;div style=&quot;font-size: 14px&quot;&gt;&lt;font style=&quot;font-size: 14px&quot; color=&quot;#1A1A1A&quot;&gt;&lt;span style=&quot;background-color: transparent&quot;&gt;&lt;b&gt;LIMNIGSMWV07&lt;/b&gt;&lt;br&gt;&lt;/span&gt;&lt;/font&gt;&lt;/div&gt;&lt;div style=&quot;font-size: 14px&quot;&gt;&lt;font style=&quot;font-size: 14px&quot; color=&quot;#1A1A1A&quot;&gt;&lt;span style=&quot;background-color: transparent&quot;&gt;&lt;b&gt;IP: 172.17.55.136&lt;/b&gt;&lt;/span&gt;&lt;/font&gt;&lt;/div&gt;&lt;div style=&quot;font-size: 14px&quot;&gt;&lt;font style=&quot;font-size: 14px&quot; color=&quot;#1A1A1A&quot;&gt;&lt;span style=&quot;background-color: transparent&quot;&gt;&lt;b&gt;NIG: 4.3&lt;/b&gt;&lt;/span&gt;&lt;/font&gt;&lt;/div&gt;&lt;div style=&quot;font-size: 14px&quot;&gt;&lt;font style=&quot;font-size: 14px&quot; color=&quot;#1A1A1A&quot;&gt;&lt;span style=&quot;background-color: transparent&quot;&gt;&lt;b&gt;JBOSS: 6.1&lt;/b&gt;&lt;/span&gt;&lt;/font&gt;&lt;/div&gt;&lt;div style=&quot;font-size: 14px&quot;&gt;&lt;font style=&quot;font-size: 14px&quot; color=&quot;#1A1A1A&quot;&gt;&lt;span style=&quot;background-color: transparent&quot;&gt;&lt;b&gt;SERVICE: APLICACIÓN WEB&lt;/b&gt;&lt;/span&gt;&lt;/font&gt;&lt;/div&gt;&lt;div style=&quot;font-size: 14px&quot;&gt;&lt;font style=&quot;font-size: 14px&quot; color=&quot;#1A1A1A&quot;&gt;&lt;span style=&quot;background-color: transparent&quot;&gt;&lt;b&gt;SO: RED HAT 7&lt;br&gt;&lt;/b&gt;&lt;/span&gt;&lt;/font&gt;&lt;/div&gt;" style="text;html=1;align=center;verticalAlign=middle;whiteSpace=wrap;rounded=0;sketch=0;fontColor=#E4FDE1;strokeColor=#000000;strokeWidth=2;" vertex="1" parent="1">
          <mxGeometry x="165" y="340" width="250" height="150" as="geometry" />
        </mxCell>
        <mxCell id="hiVBW5uq49wSX4w3Utvu-34" value="" style="shape=image;html=1;verticalAlign=top;verticalLabelPosition=bottom;labelBackgroundColor=#ffffff;imageAspect=0;aspect=fixed;image=https://cdn0.iconfinder.com/data/icons/flat-round-system/512/redhat-128.png;rounded=0;sketch=0;strokeColor=#000000;strokeWidth=2;fillColor=none;gradientColor=none;fontColor=#E4FDE1;" vertex="1" parent="1">
          <mxGeometry x="780" y="270" width="40" height="40" as="geometry" />
        </mxCell>
        <mxCell id="hiVBW5uq49wSX4w3Utvu-35" value="" style="shape=image;html=1;verticalAlign=top;verticalLabelPosition=bottom;labelBackgroundColor=#ffffff;imageAspect=0;aspect=fixed;image=https://cdn0.iconfinder.com/data/icons/flat-round-system/512/redhat-128.png;rounded=0;sketch=0;strokeColor=#000000;strokeWidth=2;fillColor=none;gradientColor=none;fontColor=#E4FDE1;" vertex="1" parent="1">
          <mxGeometry x="780" y="510" width="40" height="40" as="geometry" />
        </mxCell>
        <mxCell id="hiVBW5uq49wSX4w3Utvu-36" value="&lt;div style=&quot;font-size: 14px&quot;&gt;&lt;font style=&quot;font-size: 14px&quot; color=&quot;#1A1A1A&quot;&gt;&lt;span style=&quot;background-color: transparent&quot;&gt;&lt;b&gt;NIG - IS GSLITE&lt;/b&gt;&lt;br&gt;&lt;/span&gt;&lt;/font&gt;&lt;/div&gt;&lt;div style=&quot;font-size: 14px&quot;&gt;&lt;font style=&quot;font-size: 14px&quot; color=&quot;#1A1A1A&quot;&gt;&lt;span style=&quot;background-color: transparent&quot;&gt;&lt;b&gt;------------------------------------------&lt;/b&gt;&lt;/span&gt;&lt;/font&gt;&lt;/div&gt;&lt;div style=&quot;font-size: 14px&quot;&gt;&lt;font style=&quot;font-size: 14px&quot; color=&quot;#1A1A1A&quot;&gt;&lt;span style=&quot;background-color: transparent&quot;&gt;&lt;b&gt;LIMNIGSMWV01&lt;/b&gt;&lt;br&gt;&lt;/span&gt;&lt;/font&gt;&lt;/div&gt;&lt;div style=&quot;font-size: 14px&quot;&gt;&lt;font style=&quot;font-size: 14px&quot; color=&quot;#1A1A1A&quot;&gt;&lt;span style=&quot;background-color: transparent&quot;&gt;&lt;b&gt;IP: 172.17.34.150&lt;/b&gt;&lt;/span&gt;&lt;/font&gt;&lt;/div&gt;&lt;div style=&quot;font-size: 14px&quot;&gt;&lt;font style=&quot;font-size: 14px&quot; color=&quot;#1A1A1A&quot;&gt;&lt;span style=&quot;background-color: transparent&quot;&gt;&lt;b&gt;NIG: 4.3&lt;/b&gt;&lt;/span&gt;&lt;/font&gt;&lt;/div&gt;&lt;div style=&quot;font-size: 14px&quot;&gt;&lt;font style=&quot;font-size: 14px&quot; color=&quot;#1A1A1A&quot;&gt;&lt;span style=&quot;background-color: transparent&quot;&gt;&lt;b&gt;JBOSS: 6.1&lt;/b&gt;&lt;/span&gt;&lt;/font&gt;&lt;/div&gt;&lt;div style=&quot;font-size: 14px&quot;&gt;&lt;font style=&quot;font-size: 14px&quot; color=&quot;#1A1A1A&quot;&gt;&lt;span style=&quot;background-color: transparent&quot;&gt;&lt;b&gt;SERVICE: APLICACIÓN WEB&lt;/b&gt;&lt;/span&gt;&lt;/font&gt;&lt;/div&gt;&lt;div style=&quot;font-size: 14px&quot;&gt;&lt;font style=&quot;font-size: 14px&quot; color=&quot;#1A1A1A&quot;&gt;&lt;span style=&quot;background-color: transparent&quot;&gt;&lt;b&gt;SO: RED HAT 7&lt;br&gt;&lt;/b&gt;&lt;/span&gt;&lt;/font&gt;&lt;/div&gt;" style="text;html=1;align=center;verticalAlign=middle;whiteSpace=wrap;rounded=0;sketch=0;fontColor=#E4FDE1;strokeColor=#000000;strokeWidth=2;" vertex="1" parent="1">
          <mxGeometry x="510" y="340" width="250" height="150" as="geometry" />
        </mxCell>
        <mxCell id="hiVBW5uq49wSX4w3Utvu-37" value="&lt;div style=&quot;font-size: 14px&quot;&gt;&lt;font style=&quot;font-size: 14px&quot; color=&quot;#1A1A1A&quot;&gt;&lt;span style=&quot;background-color: transparent&quot;&gt;&lt;b&gt;NIG - IS GSLITE&lt;/b&gt;&lt;br&gt;&lt;/span&gt;&lt;/font&gt;&lt;/div&gt;&lt;div style=&quot;font-size: 14px&quot;&gt;&lt;font style=&quot;font-size: 14px&quot; color=&quot;#1A1A1A&quot;&gt;&lt;span style=&quot;background-color: transparent&quot;&gt;&lt;b&gt;------------------------------------------&lt;/b&gt;&lt;/span&gt;&lt;/font&gt;&lt;/div&gt;&lt;div style=&quot;font-size: 14px&quot;&gt;&lt;font style=&quot;font-size: 14px&quot; color=&quot;#1A1A1A&quot;&gt;&lt;span style=&quot;background-color: transparent&quot;&gt;&lt;b&gt;LIMNIGSMWV06&lt;/b&gt;&lt;br&gt;&lt;/span&gt;&lt;/font&gt;&lt;/div&gt;&lt;div style=&quot;font-size: 14px&quot;&gt;&lt;font style=&quot;font-size: 14px&quot; color=&quot;#1A1A1A&quot;&gt;&lt;span style=&quot;background-color: transparent&quot;&gt;&lt;b&gt;IP: 172.17.55.106&lt;/b&gt;&lt;/span&gt;&lt;/font&gt;&lt;/div&gt;&lt;div style=&quot;font-size: 14px&quot;&gt;&lt;font style=&quot;font-size: 14px&quot; color=&quot;#1A1A1A&quot;&gt;&lt;span style=&quot;background-color: transparent&quot;&gt;&lt;b&gt;NIG: 4.3&lt;/b&gt;&lt;/span&gt;&lt;/font&gt;&lt;/div&gt;&lt;div style=&quot;font-size: 14px&quot;&gt;&lt;font style=&quot;font-size: 14px&quot; color=&quot;#1A1A1A&quot;&gt;&lt;span style=&quot;background-color: transparent&quot;&gt;&lt;b&gt;JBOSS: 6.1&lt;/b&gt;&lt;/span&gt;&lt;/font&gt;&lt;/div&gt;&lt;div style=&quot;font-size: 14px&quot;&gt;&lt;font style=&quot;font-size: 14px&quot; color=&quot;#1A1A1A&quot;&gt;&lt;span style=&quot;background-color: transparent&quot;&gt;&lt;b&gt;SERVICE: APLICACIÓN WEB&lt;/b&gt;&lt;/span&gt;&lt;/font&gt;&lt;/div&gt;&lt;div style=&quot;font-size: 14px&quot;&gt;&lt;font style=&quot;font-size: 14px&quot; color=&quot;#1A1A1A&quot;&gt;&lt;span style=&quot;background-color: transparent&quot;&gt;&lt;b&gt;SO: RED HAT 7&lt;br&gt;&lt;/b&gt;&lt;/span&gt;&lt;/font&gt;&lt;/div&gt;" style="text;html=1;align=center;verticalAlign=middle;whiteSpace=wrap;rounded=0;sketch=0;fontColor=#E4FDE1;strokeColor=#000000;strokeWidth=2;" vertex="1" parent="1">
          <mxGeometry x="510" y="110" width="250" height="150" as="geometry" />
        </mxCell>
        <mxCell id="hiVBW5uq49wSX4w3Utvu-41" value="" style="rounded=1;whiteSpace=wrap;html=1;sketch=0;strokeWidth=2;gradientColor=none;fontColor=#E4FDE1;fillColor=#9AC7BF;strokeColor=#FFFFFF;" vertex="1" parent="1">
          <mxGeometry x="900" y="80" width="1030" height="490" as="geometry" />
        </mxCell>
        <mxCell id="hiVBW5uq49wSX4w3Utvu-42" value="" style="verticalLabelPosition=bottom;aspect=fixed;html=1;verticalAlign=top;strokeColor=none;shape=mxgraph.citrix.tower_server;rounded=0;shadow=0;comic=0;fontFamily=Verdana;fillColor=#F45B69;fontColor=#E4FDE1;" vertex="1" parent="1">
          <mxGeometry x="1158.75" y="220" width="65" height="85" as="geometry" />
        </mxCell>
        <mxCell id="hiVBW5uq49wSX4w3Utvu-43" value="" style="verticalLabelPosition=bottom;aspect=fixed;html=1;verticalAlign=top;strokeColor=none;shape=mxgraph.citrix.tower_server;rounded=0;shadow=0;comic=0;fontFamily=Verdana;fillColor=#F45B69;fontColor=#E4FDE1;" vertex="1" parent="1">
          <mxGeometry x="1170" y="465" width="65" height="85" as="geometry" />
        </mxCell>
        <mxCell id="hiVBW5uq49wSX4w3Utvu-44" value="" style="verticalLabelPosition=bottom;aspect=fixed;html=1;verticalAlign=top;strokeColor=none;shape=mxgraph.citrix.tower_server;rounded=0;shadow=0;comic=0;fontFamily=Verdana;fillColor=#F45B69;fontColor=#E4FDE1;" vertex="1" parent="1">
          <mxGeometry x="1500" y="220" width="65" height="85" as="geometry" />
        </mxCell>
        <mxCell id="hiVBW5uq49wSX4w3Utvu-45" value="" style="verticalLabelPosition=bottom;aspect=fixed;html=1;verticalAlign=top;strokeColor=none;shape=mxgraph.citrix.tower_server;rounded=0;shadow=0;comic=0;fontFamily=Verdana;fillColor=#F45B69;fontColor=#E4FDE1;" vertex="1" parent="1">
          <mxGeometry x="1500" y="450" width="65" height="85" as="geometry" />
        </mxCell>
        <mxCell id="hiVBW5uq49wSX4w3Utvu-46" value="&lt;div style=&quot;font-size: 14px&quot;&gt;&lt;font style=&quot;font-size: 14px&quot; color=&quot;#1A1A1A&quot;&gt;&lt;span style=&quot;background-color: transparent&quot;&gt;&lt;b&gt;GEOSPATIAL SERVER&lt;/b&gt;&lt;br&gt;&lt;/span&gt;&lt;/font&gt;&lt;/div&gt;&lt;div style=&quot;font-size: 14px&quot;&gt;&lt;font style=&quot;font-size: 14px&quot; color=&quot;#1A1A1A&quot;&gt;&lt;span style=&quot;background-color: transparent&quot;&gt;&lt;b&gt;------------------------------------------&lt;/b&gt;&lt;/span&gt;&lt;/font&gt;&lt;/div&gt;&lt;div style=&quot;font-size: 14px&quot;&gt;&lt;font style=&quot;font-size: 14px&quot; color=&quot;#1A1A1A&quot;&gt;&lt;span style=&quot;background-color: transparent&quot;&gt;&lt;b&gt;LIMGSSSMWV08&lt;/b&gt;&lt;br&gt;&lt;/span&gt;&lt;/font&gt;&lt;/div&gt;&lt;div style=&quot;font-size: 14px&quot;&gt;&lt;font style=&quot;font-size: 14px&quot; color=&quot;#1A1A1A&quot;&gt;&lt;span style=&quot;background-color: transparent&quot;&gt;&lt;b&gt;IP: 172.17.55.201&lt;/b&gt;&lt;/span&gt;&lt;/font&gt;&lt;/div&gt;&lt;div style=&quot;font-size: 14px&quot;&gt;&lt;font style=&quot;font-size: 14px&quot; color=&quot;#1A1A1A&quot;&gt;&lt;span style=&quot;background-color: transparent&quot;&gt;&lt;b&gt;SERVICE: INTEGRACIÓN DE SERVICIOS&lt;br&gt;&lt;/b&gt;&lt;/span&gt;&lt;/font&gt;&lt;/div&gt;&lt;div style=&quot;font-size: 14px&quot;&gt;&lt;font style=&quot;font-size: 14px&quot; color=&quot;#1A1A1A&quot;&gt;&lt;span style=&quot;background-color: transparent&quot;&gt;&lt;b&gt;SO: RED HAT 7&lt;br&gt;&lt;/b&gt;&lt;/span&gt;&lt;/font&gt;&lt;/div&gt;&lt;div style=&quot;font-size: 14px&quot;&gt;&lt;font style=&quot;font-size: 14px&quot; color=&quot;#1A1A1A&quot;&gt;&lt;span style=&quot;background-color: transparent&quot;&gt;&lt;b&gt;WsFactibilidad&lt;br&gt;&lt;/b&gt;&lt;/span&gt;&lt;/font&gt;&lt;/div&gt;" style="text;html=1;align=center;verticalAlign=middle;whiteSpace=wrap;rounded=0;sketch=0;fontColor=#E4FDE1;strokeColor=#000000;strokeWidth=2;" vertex="1" parent="1">
          <mxGeometry x="950" y="110" width="250" height="150" as="geometry" />
        </mxCell>
        <mxCell id="hiVBW5uq49wSX4w3Utvu-47" value="" style="shape=image;html=1;verticalAlign=top;verticalLabelPosition=bottom;labelBackgroundColor=#ffffff;imageAspect=0;aspect=fixed;image=https://cdn0.iconfinder.com/data/icons/flat-round-system/512/redhat-128.png;rounded=0;sketch=0;strokeColor=#000000;strokeWidth=2;fillColor=none;gradientColor=none;fontColor=#E4FDE1;" vertex="1" parent="1">
          <mxGeometry x="1210" y="270" width="40" height="40" as="geometry" />
        </mxCell>
        <mxCell id="hiVBW5uq49wSX4w3Utvu-48" value="&lt;div style=&quot;font-size: 14px&quot;&gt;&lt;font style=&quot;font-size: 14px&quot; color=&quot;#1A1A1A&quot;&gt;&lt;span style=&quot;background-color: transparent&quot;&gt;&lt;b&gt;GEOSPATIAL SERVER&lt;/b&gt;&lt;br&gt;&lt;/span&gt;&lt;/font&gt;&lt;/div&gt;&lt;div style=&quot;font-size: 14px&quot;&gt;&lt;font style=&quot;font-size: 14px&quot; color=&quot;#1A1A1A&quot;&gt;&lt;span style=&quot;background-color: transparent&quot;&gt;&lt;b&gt;------------------------------------------&lt;/b&gt;&lt;/span&gt;&lt;/font&gt;&lt;/div&gt;&lt;div style=&quot;font-size: 14px&quot;&gt;&lt;font style=&quot;font-size: 14px&quot; color=&quot;#1A1A1A&quot;&gt;&lt;span style=&quot;background-color: transparent&quot;&gt;&lt;b&gt;LIMNIGSMWV09&lt;/b&gt;&lt;br&gt;&lt;/span&gt;&lt;/font&gt;&lt;/div&gt;&lt;div style=&quot;font-size: 14px&quot;&gt;&lt;font style=&quot;font-size: 14px&quot; color=&quot;#1A1A1A&quot;&gt;&lt;span style=&quot;background-color: transparent&quot;&gt;&lt;b&gt;IP: 172.17.55.182&lt;/b&gt;&lt;/span&gt;&lt;/font&gt;&lt;/div&gt;&lt;div style=&quot;font-size: 14px&quot;&gt;&lt;font style=&quot;font-size: 14px&quot; color=&quot;#1A1A1A&quot;&gt;&lt;span style=&quot;background-color: transparent&quot;&gt;&lt;b&gt;SERVICE: INTEGRACIÓN DE APROVISIONAMIENTO&lt;br&gt;&lt;/b&gt;&lt;/span&gt;&lt;/font&gt;&lt;/div&gt;&lt;div style=&quot;font-size: 14px&quot;&gt;&lt;font style=&quot;font-size: 14px&quot; color=&quot;#1A1A1A&quot;&gt;&lt;span style=&quot;background-color: transparent&quot;&gt;&lt;b&gt;SO: RED HAT 7&lt;br&gt;&lt;/b&gt;&lt;/span&gt;&lt;/font&gt;&lt;/div&gt;&lt;div style=&quot;font-size: 14px&quot;&gt;&lt;font style=&quot;font-size: 14px&quot; color=&quot;#1A1A1A&quot;&gt;&lt;span style=&quot;background-color: transparent&quot;&gt;&lt;b&gt;WsConsultarBloquear&lt;/b&gt;&lt;/span&gt;&lt;/font&gt;&lt;/div&gt;&lt;div style=&quot;font-size: 14px&quot;&gt;&lt;font style=&quot;font-size: 14px&quot; color=&quot;#1A1A1A&quot;&gt;&lt;span style=&quot;background-color: transparent&quot;&gt;&lt;b&gt;WsConsultaRfs&lt;/b&gt;&lt;/span&gt;&lt;/font&gt;&lt;/div&gt;&lt;div style=&quot;font-size: 14px&quot;&gt;&lt;font style=&quot;font-size: 14px&quot; color=&quot;#1A1A1A&quot;&gt;&lt;span style=&quot;background-color: transparent&quot;&gt;&lt;b&gt;WsLiberarRecursos&lt;/b&gt;&lt;/span&gt;&lt;/font&gt;&lt;/div&gt;&lt;div style=&quot;font-size: 14px&quot;&gt;&lt;font style=&quot;font-size: 14px&quot; color=&quot;#1A1A1A&quot;&gt;&lt;span style=&quot;background-color: transparent&quot;&gt;&lt;b&gt;WsNotificarEstado&lt;br&gt;&lt;/b&gt;&lt;/span&gt;&lt;/font&gt;&lt;/div&gt;" style="text;html=1;align=center;verticalAlign=middle;whiteSpace=wrap;rounded=0;sketch=0;fontColor=#E4FDE1;strokeColor=#000000;strokeWidth=2;" vertex="1" parent="1">
          <mxGeometry x="940" y="320" width="250" height="210" as="geometry" />
        </mxCell>
        <mxCell id="hiVBW5uq49wSX4w3Utvu-49" value="" style="shape=image;html=1;verticalAlign=top;verticalLabelPosition=bottom;labelBackgroundColor=#ffffff;imageAspect=0;aspect=fixed;image=https://cdn0.iconfinder.com/data/icons/flat-round-system/512/redhat-128.png;rounded=0;sketch=0;strokeColor=#000000;strokeWidth=2;fillColor=none;gradientColor=none;fontColor=#E4FDE1;" vertex="1" parent="1">
          <mxGeometry x="1540" y="270" width="40" height="40" as="geometry" />
        </mxCell>
        <mxCell id="hiVBW5uq49wSX4w3Utvu-50" value="&lt;div style=&quot;font-size: 14px&quot;&gt;&lt;font style=&quot;font-size: 14px&quot; color=&quot;#1A1A1A&quot;&gt;&lt;span style=&quot;background-color: transparent&quot;&gt;&lt;b&gt;GEOSPATIAL SERVER&lt;/b&gt;&lt;br&gt;&lt;/span&gt;&lt;/font&gt;&lt;/div&gt;&lt;div style=&quot;font-size: 14px&quot;&gt;&lt;font style=&quot;font-size: 14px&quot; color=&quot;#1A1A1A&quot;&gt;&lt;span style=&quot;background-color: transparent&quot;&gt;&lt;b&gt;------------------------------------------&lt;/b&gt;&lt;/span&gt;&lt;/font&gt;&lt;/div&gt;&lt;div style=&quot;font-size: 14px&quot;&gt;&lt;font style=&quot;font-size: 14px&quot; color=&quot;#1A1A1A&quot;&gt;&lt;span style=&quot;background-color: transparent&quot;&gt;&lt;b&gt;LIMGSSSMWV06&lt;/b&gt;&lt;br&gt;&lt;/span&gt;&lt;/font&gt;&lt;/div&gt;&lt;div style=&quot;font-size: 14px&quot;&gt;&lt;font style=&quot;font-size: 14px&quot; color=&quot;#1A1A1A&quot;&gt;&lt;span style=&quot;background-color: transparent&quot;&gt;&lt;b&gt;IP: 172.17.55.79&lt;/b&gt;&lt;/span&gt;&lt;/font&gt;&lt;/div&gt;&lt;div style=&quot;font-size: 14px&quot;&gt;&lt;font style=&quot;font-size: 14px&quot; color=&quot;#1A1A1A&quot;&gt;&lt;span style=&quot;background-color: transparent&quot;&gt;&lt;b&gt;SERVICE: INTEGRACIÓN APROVISIONAMIENTO&lt;br&gt;&lt;/b&gt;&lt;/span&gt;&lt;/font&gt;&lt;/div&gt;&lt;div style=&quot;font-size: 14px&quot;&gt;&lt;font style=&quot;font-size: 14px&quot; color=&quot;#1A1A1A&quot;&gt;&lt;span style=&quot;background-color: transparent&quot;&gt;&lt;b&gt;JBOSS: 6.1&lt;/b&gt;&lt;/span&gt;&lt;/font&gt;&lt;/div&gt;&lt;div style=&quot;font-size: 14px&quot;&gt;&lt;font style=&quot;font-size: 14px&quot; color=&quot;#1A1A1A&quot;&gt;&lt;span style=&quot;background-color: transparent&quot;&gt;&lt;b&gt;SO: RED HAT 7&lt;br&gt;&lt;/b&gt;&lt;/span&gt;&lt;/font&gt;&lt;/div&gt;" style="text;html=1;align=center;verticalAlign=middle;whiteSpace=wrap;rounded=0;sketch=0;fontColor=#E4FDE1;strokeColor=#000000;strokeWidth=2;" vertex="1" parent="1">
          <mxGeometry x="1270" y="340" width="250" height="150" as="geometry" />
        </mxCell>
        <mxCell id="hiVBW5uq49wSX4w3Utvu-51" value="&lt;div style=&quot;font-size: 14px&quot;&gt;&lt;font style=&quot;font-size: 14px&quot; color=&quot;#1A1A1A&quot;&gt;&lt;span style=&quot;background-color: transparent&quot;&gt;&lt;b&gt;GEOSPATIAL SERVER&lt;/b&gt;&lt;br&gt;&lt;/span&gt;&lt;/font&gt;&lt;/div&gt;&lt;div style=&quot;font-size: 14px&quot;&gt;&lt;font style=&quot;font-size: 14px&quot; color=&quot;#1A1A1A&quot;&gt;&lt;span style=&quot;background-color: transparent&quot;&gt;&lt;b&gt;------------------------------------------&lt;/b&gt;&lt;/span&gt;&lt;/font&gt;&lt;/div&gt;&lt;div style=&quot;font-size: 14px&quot;&gt;&lt;font style=&quot;font-size: 14px&quot; color=&quot;#1A1A1A&quot;&gt;&lt;span style=&quot;background-color: transparent&quot;&gt;&lt;b&gt;LIMGSSSMWV05&lt;/b&gt;&lt;br&gt;&lt;/span&gt;&lt;/font&gt;&lt;/div&gt;&lt;div style=&quot;font-size: 14px&quot;&gt;&lt;font style=&quot;font-size: 14px&quot; color=&quot;#1A1A1A&quot;&gt;&lt;span style=&quot;background-color: transparent&quot;&gt;&lt;b&gt;IP:&amp;nbsp; 172.17.55.86&lt;/b&gt;&lt;/span&gt;&lt;/font&gt;&lt;/div&gt;&lt;div style=&quot;font-size: 14px&quot;&gt;&lt;font style=&quot;font-size: 14px&quot; color=&quot;#1A1A1A&quot;&gt;&lt;span style=&quot;background-color: transparent&quot;&gt;&lt;b&gt;SERVICE:&amp;nbsp; INTEGRACIÓN DE SERVICIOS&lt;/b&gt;&lt;br&gt;&lt;/span&gt;&lt;/font&gt;&lt;/div&gt;&lt;div style=&quot;font-size: 14px&quot;&gt;&lt;font style=&quot;font-size: 14px&quot; color=&quot;#1A1A1A&quot;&gt;&lt;span style=&quot;background-color: transparent&quot;&gt;&lt;b&gt;JBOSS: 6.1&lt;/b&gt;&lt;br&gt;&lt;/span&gt;&lt;/font&gt;&lt;/div&gt;&lt;div style=&quot;font-size: 14px&quot;&gt;&lt;font style=&quot;font-size: 14px&quot; color=&quot;#1A1A1A&quot;&gt;&lt;span style=&quot;background-color: transparent&quot;&gt;&lt;b&gt;SO: RED HAT 7&lt;br&gt;&lt;/b&gt;&lt;/span&gt;&lt;/font&gt;&lt;/div&gt;" style="text;html=1;align=center;verticalAlign=middle;whiteSpace=wrap;rounded=0;sketch=0;fontColor=#E4FDE1;strokeColor=#000000;strokeWidth=2;" vertex="1" parent="1">
          <mxGeometry x="1270" y="110" width="250" height="150" as="geometry" />
        </mxCell>
        <mxCell id="hiVBW5uq49wSX4w3Utvu-52" value="" style="verticalLabelPosition=bottom;aspect=fixed;html=1;verticalAlign=top;strokeColor=none;shape=mxgraph.citrix.tower_server;rounded=0;shadow=0;comic=0;fontFamily=Verdana;fillColor=#F45B69;fontColor=#E4FDE1;" vertex="1" parent="1">
          <mxGeometry x="1830" y="220" width="65" height="85" as="geometry" />
        </mxCell>
        <mxCell id="hiVBW5uq49wSX4w3Utvu-53" value="" style="shape=image;html=1;verticalAlign=top;verticalLabelPosition=bottom;labelBackgroundColor=#ffffff;imageAspect=0;aspect=fixed;image=https://cdn0.iconfinder.com/data/icons/flat-round-system/512/redhat-128.png;rounded=0;sketch=0;strokeColor=#000000;strokeWidth=2;fillColor=none;gradientColor=none;fontColor=#E4FDE1;" vertex="1" parent="1">
          <mxGeometry x="1870" y="270" width="40" height="40" as="geometry" />
        </mxCell>
        <mxCell id="hiVBW5uq49wSX4w3Utvu-54" value="&lt;div style=&quot;font-size: 14px&quot;&gt;&lt;font style=&quot;font-size: 14px&quot; color=&quot;#1A1A1A&quot;&gt;&lt;span style=&quot;background-color: transparent&quot;&gt;&lt;b&gt;GEOSPATIAL SERVER&lt;/b&gt;&lt;br&gt;&lt;/span&gt;&lt;/font&gt;&lt;/div&gt;&lt;div style=&quot;font-size: 14px&quot;&gt;&lt;font style=&quot;font-size: 14px&quot; color=&quot;#1A1A1A&quot;&gt;&lt;span style=&quot;background-color: transparent&quot;&gt;&lt;b&gt;------------------------------------------&lt;/b&gt;&lt;/span&gt;&lt;/font&gt;&lt;/div&gt;&lt;div style=&quot;font-size: 14px&quot;&gt;&lt;font style=&quot;font-size: 14px&quot; color=&quot;#1A1A1A&quot;&gt;&lt;span style=&quot;background-color: transparent&quot;&gt;&lt;b&gt;LIMGSSSMWV07&lt;/b&gt;&lt;br&gt;&lt;/span&gt;&lt;/font&gt;&lt;/div&gt;&lt;div style=&quot;font-size: 14px&quot;&gt;&lt;font style=&quot;font-size: 14px&quot; color=&quot;#1A1A1A&quot;&gt;&lt;span style=&quot;background-color: transparent&quot;&gt;&lt;b&gt;IP: 172.17.55.206&lt;/b&gt;&lt;/span&gt;&lt;/font&gt;&lt;/div&gt;&lt;div style=&quot;font-size: 14px&quot;&gt;&lt;font style=&quot;font-size: 14px&quot; color=&quot;#1A1A1A&quot;&gt;&lt;span style=&quot;background-color: transparent&quot;&gt;&lt;b&gt;JBOSS: 6.1&lt;/b&gt;&lt;/span&gt;&lt;/font&gt;&lt;/div&gt;&lt;div style=&quot;font-size: 14px&quot;&gt;&lt;font style=&quot;font-size: 14px&quot; color=&quot;#1A1A1A&quot;&gt;&lt;span style=&quot;background-color: transparent&quot;&gt;&lt;b&gt;SERVICE: INTEGRACIÓN SERVIDOR DE DIRECCIONES&lt;br&gt;&lt;/b&gt;&lt;/span&gt;&lt;/font&gt;&lt;/div&gt;&lt;div style=&quot;font-size: 14px&quot;&gt;&lt;font style=&quot;font-size: 14px&quot; color=&quot;#1A1A1A&quot;&gt;&lt;span style=&quot;background-color: transparent&quot;&gt;&lt;b&gt;SO: RED HAT 7&lt;br&gt;&lt;/b&gt;&lt;/span&gt;&lt;/font&gt;&lt;/div&gt;" style="text;html=1;align=center;verticalAlign=middle;whiteSpace=wrap;rounded=0;sketch=0;fontColor=#E4FDE1;strokeColor=#000000;strokeWidth=2;" vertex="1" parent="1">
          <mxGeometry x="1600" y="110" width="250" height="150" as="geometry" />
        </mxCell>
        <mxCell id="hiVBW5uq49wSX4w3Utvu-55" value="" style="shape=image;html=1;verticalAlign=top;verticalLabelPosition=bottom;labelBackgroundColor=#ffffff;imageAspect=0;aspect=fixed;image=https://cdn0.iconfinder.com/data/icons/flat-round-system/512/redhat-128.png;rounded=0;sketch=0;strokeColor=#000000;strokeWidth=2;fillColor=none;gradientColor=none;fontColor=#E4FDE1;" vertex="1" parent="1">
          <mxGeometry x="1540" y="520" width="40" height="40" as="geometry" />
        </mxCell>
        <mxCell id="hiVBW5uq49wSX4w3Utvu-56" value="" style="shape=image;html=1;verticalAlign=top;verticalLabelPosition=bottom;labelBackgroundColor=#ffffff;imageAspect=0;aspect=fixed;image=https://cdn0.iconfinder.com/data/icons/flat-round-system/512/redhat-128.png;rounded=0;sketch=0;strokeColor=#000000;strokeWidth=2;fillColor=none;gradientColor=none;fontColor=#E4FDE1;" vertex="1" parent="1">
          <mxGeometry x="1210" y="520" width="40" height="40" as="geometry" />
        </mxCell>
        <mxCell id="hiVBW5uq49wSX4w3Utvu-57" value="" style="verticalLabelPosition=bottom;aspect=fixed;html=1;verticalAlign=top;strokeColor=none;shape=mxgraph.citrix.tower_server;rounded=0;shadow=0;comic=0;fontFamily=Verdana;fillColor=#F45B69;fontColor=#E4FDE1;" vertex="1" parent="1">
          <mxGeometry x="1830" y="465" width="65" height="85" as="geometry" />
        </mxCell>
        <mxCell id="hiVBW5uq49wSX4w3Utvu-58" value="" style="shape=image;html=1;verticalAlign=top;verticalLabelPosition=bottom;labelBackgroundColor=#ffffff;imageAspect=0;aspect=fixed;image=https://cdn0.iconfinder.com/data/icons/flat-round-system/512/redhat-128.png;rounded=0;sketch=0;strokeColor=#000000;strokeWidth=2;fillColor=none;gradientColor=none;fontColor=#E4FDE1;" vertex="1" parent="1">
          <mxGeometry x="1870" y="510" width="40" height="40" as="geometry" />
        </mxCell>
        <mxCell id="hiVBW5uq49wSX4w3Utvu-59" value="&lt;div style=&quot;font-size: 14px&quot;&gt;&lt;font style=&quot;font-size: 14px&quot; color=&quot;#1A1A1A&quot;&gt;&lt;span style=&quot;background-color: transparent&quot;&gt;&lt;b&gt;GEOSPATIAL SERVER&lt;/b&gt;&lt;br&gt;&lt;/span&gt;&lt;/font&gt;&lt;/div&gt;&lt;div style=&quot;font-size: 14px&quot;&gt;&lt;font style=&quot;font-size: 14px&quot; color=&quot;#1A1A1A&quot;&gt;&lt;span style=&quot;background-color: transparent&quot;&gt;&lt;b&gt;------------------------------------------&lt;/b&gt;&lt;/span&gt;&lt;/font&gt;&lt;/div&gt;&lt;div style=&quot;font-size: 14px&quot;&gt;&lt;font style=&quot;font-size: 14px&quot; color=&quot;#1A1A1A&quot;&gt;&lt;span style=&quot;background-color: transparent&quot;&gt;&lt;b&gt;LIMGSSSMWV04&lt;/b&gt;&lt;br&gt;&lt;/span&gt;&lt;/font&gt;&lt;/div&gt;&lt;div style=&quot;font-size: 14px&quot;&gt;&lt;font style=&quot;font-size: 14px&quot; color=&quot;#1A1A1A&quot;&gt;&lt;span style=&quot;background-color: transparent&quot;&gt;&lt;b&gt;IP: 172.17.55.116&lt;/b&gt;&lt;/span&gt;&lt;/font&gt;&lt;/div&gt;&lt;div style=&quot;font-size: 14px&quot;&gt;&lt;font style=&quot;font-size: 14px&quot; color=&quot;#1A1A1A&quot;&gt;&lt;span style=&quot;background-color: transparent&quot;&gt;&lt;b&gt;JBOSS: 6.1&lt;/b&gt;&lt;/span&gt;&lt;/font&gt;&lt;/div&gt;&lt;div style=&quot;font-size: 14px&quot;&gt;&lt;font style=&quot;font-size: 14px&quot; color=&quot;#1A1A1A&quot;&gt;&lt;span style=&quot;background-color: transparent&quot;&gt;&lt;b&gt;SERVICE: INTEGRACIÓN SERVIDOR DE DIRECCIONES&lt;br&gt;&lt;/b&gt;&lt;/span&gt;&lt;/font&gt;&lt;/div&gt;&lt;div style=&quot;font-size: 14px&quot;&gt;&lt;font style=&quot;font-size: 14px&quot; color=&quot;#1A1A1A&quot;&gt;&lt;span style=&quot;background-color: transparent&quot;&gt;&lt;b&gt;SO: RED HAT 7&lt;br&gt;&lt;/b&gt;&lt;/span&gt;&lt;/font&gt;&lt;/div&gt;&lt;div style=&quot;font-size: 14px&quot;&gt;&lt;font style=&quot;font-size: 14px&quot; color=&quot;#1A1A1A&quot;&gt;&lt;span style=&quot;background-color: transparent&quot;&gt;&lt;b&gt;WsGeorreferenciar&lt;/b&gt;&lt;/span&gt;&lt;/font&gt;&lt;/div&gt;&lt;div style=&quot;font-size: 14px&quot;&gt;&lt;font style=&quot;font-size: 14px&quot; color=&quot;#1A1A1A&quot;&gt;&lt;span style=&quot;background-color: transparent&quot;&gt;&lt;b&gt;WsGeorreferenciarManualmente&lt;/b&gt;&lt;/span&gt;&lt;/font&gt;&lt;/div&gt;&lt;div style=&quot;font-size: 14px&quot;&gt;&lt;font style=&quot;font-size: 14px&quot; color=&quot;#1A1A1A&quot;&gt;&lt;span style=&quot;background-color: transparent&quot;&gt;&lt;b&gt;WsConsultaDirExcepcionada&lt;/b&gt;&lt;/span&gt;&lt;/font&gt;&lt;/div&gt;&lt;div style=&quot;font-size: 14px&quot;&gt;&lt;font style=&quot;font-size: 14px&quot; color=&quot;#1A1A1A&quot;&gt;&lt;span style=&quot;background-color: transparent&quot;&gt;&lt;b&gt;WsVisordeMapas&lt;br&gt;&lt;/b&gt;&lt;/span&gt;&lt;/font&gt;&lt;/div&gt;&lt;div style=&quot;font-size: 14px&quot;&gt;&lt;font style=&quot;font-size: 14px&quot; color=&quot;#1A1A1A&quot;&gt;&lt;span style=&quot;background-color: transparent&quot;&gt;&lt;b&gt;&lt;br&gt;&lt;/b&gt;&lt;/span&gt;&lt;/font&gt;&lt;/div&gt;" style="text;html=1;align=center;verticalAlign=middle;whiteSpace=wrap;rounded=0;sketch=0;fontColor=#E4FDE1;strokeColor=#000000;strokeWidth=2;" vertex="1" parent="1">
          <mxGeometry x="1600" y="310" width="250" height="220" as="geometry" />
        </mxCell>
        <mxCell id="hiVBW5uq49wSX4w3Utvu-69" value="" style="rounded=1;whiteSpace=wrap;html=1;sketch=0;strokeWidth=2;gradientColor=none;fontColor=#E4FDE1;fillColor=#9AC7BF;strokeColor=#FFFFFF;" vertex="1" parent="1">
          <mxGeometry x="130" y="740" width="730" height="260" as="geometry" />
        </mxCell>
        <mxCell id="hiVBW5uq49wSX4w3Utvu-70" value="" style="verticalLabelPosition=bottom;aspect=fixed;html=1;verticalAlign=top;strokeColor=none;shape=mxgraph.citrix.tower_server;rounded=0;shadow=0;comic=0;fontFamily=Verdana;fillColor=#F45B69;fontColor=#E4FDE1;" vertex="1" parent="1">
          <mxGeometry x="1290" y="885" width="65" height="85" as="geometry" />
        </mxCell>
        <mxCell id="hiVBW5uq49wSX4w3Utvu-71" value="" style="verticalLabelPosition=bottom;aspect=fixed;html=1;verticalAlign=top;strokeColor=none;shape=mxgraph.citrix.tower_server;rounded=0;shadow=0;comic=0;fontFamily=Verdana;fillColor=#F45B69;fontColor=#E4FDE1;" vertex="1" parent="1">
          <mxGeometry x="1740" y="885" width="65" height="85" as="geometry" />
        </mxCell>
        <mxCell id="hiVBW5uq49wSX4w3Utvu-72" value="&lt;div style=&quot;font-size: 14px&quot;&gt;&lt;font style=&quot;font-size: 14px&quot; color=&quot;#1A1A1A&quot;&gt;&lt;span style=&quot;background-color: transparent&quot;&gt;&lt;b&gt;SERVIDOR DE APLICACIÓN PNI&lt;/b&gt;&lt;br&gt;&lt;/span&gt;&lt;/font&gt;&lt;/div&gt;&lt;div style=&quot;font-size: 14px&quot;&gt;&lt;font style=&quot;font-size: 14px&quot; color=&quot;#1A1A1A&quot;&gt;&lt;span style=&quot;background-color: transparent&quot;&gt;&lt;b&gt;------------------------------------------&lt;/b&gt;&lt;/span&gt;&lt;/font&gt;&lt;/div&gt;&lt;div style=&quot;font-size: 14px&quot;&gt;&lt;font style=&quot;font-size: 14px&quot; color=&quot;#1A1A1A&quot;&gt;&lt;span style=&quot;background-color: transparent&quot;&gt;&lt;b&gt;LIMPROPNISMWV01&lt;/b&gt;&lt;br&gt;&lt;/span&gt;&lt;/font&gt;&lt;/div&gt;&lt;div style=&quot;font-size: 14px&quot;&gt;&lt;font style=&quot;font-size: 14px&quot; color=&quot;#1A1A1A&quot;&gt;&lt;span style=&quot;background-color: transparent&quot;&gt;&lt;b&gt;IP: 172.17.36.223&lt;/b&gt;&lt;/span&gt;&lt;/font&gt;&lt;/div&gt;&lt;div style=&quot;font-size: 14px&quot;&gt;&lt;font style=&quot;font-size: 14px&quot; color=&quot;#1A1A1A&quot;&gt;&lt;span style=&quot;background-color: transparent&quot;&gt;&lt;b&gt;SERVICE: PNI&lt;br&gt;&lt;/b&gt;&lt;/span&gt;&lt;/font&gt;&lt;/div&gt;&lt;div style=&quot;font-size: 14px&quot;&gt;&lt;font style=&quot;font-size: 14px&quot; color=&quot;#1A1A1A&quot;&gt;&lt;span style=&quot;background-color: transparent&quot;&gt;&lt;b&gt;SO: WINDOWS SERVER 2012&lt;br&gt;&lt;/b&gt;&lt;/span&gt;&lt;/font&gt;&lt;/div&gt;" style="text;html=1;align=center;verticalAlign=middle;whiteSpace=wrap;rounded=0;sketch=0;fontColor=#E4FDE1;strokeColor=#000000;strokeWidth=2;" vertex="1" parent="1">
          <mxGeometry x="1010" y="770" width="310" height="135" as="geometry" />
        </mxCell>
        <mxCell id="hiVBW5uq49wSX4w3Utvu-73" value="&lt;div style=&quot;font-size: 14px&quot;&gt;&lt;font style=&quot;font-size: 14px&quot; color=&quot;#1A1A1A&quot;&gt;&lt;span style=&quot;background-color: transparent&quot;&gt;&lt;b&gt;APP WEB&lt;/b&gt;&lt;br&gt;&lt;/span&gt;&lt;/font&gt;&lt;/div&gt;&lt;div style=&quot;font-size: 14px&quot;&gt;&lt;font style=&quot;font-size: 14px&quot; color=&quot;#1A1A1A&quot;&gt;&lt;span style=&quot;background-color: transparent&quot;&gt;&lt;b&gt;------------------------------------------&lt;/b&gt;&lt;/span&gt;&lt;/font&gt;&lt;/div&gt;&lt;div style=&quot;font-size: 14px&quot;&gt;&lt;font style=&quot;font-size: 14px&quot; color=&quot;#1A1A1A&quot;&gt;&lt;span style=&quot;background-color: transparent&quot;&gt;&lt;b&gt;LIMAPPSMWF01&lt;/b&gt;&lt;br&gt;&lt;/span&gt;&lt;/font&gt;&lt;/div&gt;&lt;div style=&quot;font-size: 14px&quot;&gt;&lt;font style=&quot;font-size: 14px&quot; color=&quot;#1A1A1A&quot;&gt;&lt;span style=&quot;background-color: transparent&quot;&gt;&lt;b&gt;IP: 172.19.44.103&lt;/b&gt;&lt;/span&gt;&lt;/font&gt;&lt;/div&gt;&lt;div style=&quot;font-size: 14px&quot;&gt;&lt;font style=&quot;font-size: 14px&quot; color=&quot;#1A1A1A&quot;&gt;&lt;span style=&quot;background-color: transparent&quot;&gt;&lt;b&gt;SERVICE: GSA LITE, GSA PROFESIONAL, FV LITE, IS PLAN LITE&lt;br&gt;&lt;/b&gt;&lt;/span&gt;&lt;/font&gt;&lt;/div&gt;&lt;div style=&quot;font-size: 14px&quot;&gt;&lt;font style=&quot;font-size: 14px&quot; color=&quot;#1A1A1A&quot;&gt;&lt;span style=&quot;background-color: transparent&quot;&gt;&lt;b&gt;SO: WINDOWS SERVER 20212&lt;br&gt;&lt;/b&gt;&lt;/span&gt;&lt;/font&gt;&lt;/div&gt;" style="text;html=1;align=center;verticalAlign=middle;whiteSpace=wrap;rounded=0;sketch=0;fontColor=#E4FDE1;strokeColor=#000000;strokeWidth=2;" vertex="1" parent="1">
          <mxGeometry x="1480" y="770" width="300" height="145" as="geometry" />
        </mxCell>
        <mxCell id="hiVBW5uq49wSX4w3Utvu-74" value="" style="shape=image;html=1;verticalAlign=top;verticalLabelPosition=bottom;labelBackgroundColor=#ffffff;imageAspect=0;aspect=fixed;image=https://cdn1.iconfinder.com/data/icons/logotypes/32/windows-128.png;rounded=0;sketch=0;strokeColor=#1A1A1A;strokeWidth=5;fillColor=#9AC7BF;gradientColor=none;fontColor=#E4FDE1;" vertex="1" parent="1">
          <mxGeometry x="1340" y="940" width="50" height="50" as="geometry" />
        </mxCell>
        <mxCell id="hiVBW5uq49wSX4w3Utvu-75" value="" style="shape=image;html=1;verticalAlign=top;verticalLabelPosition=bottom;labelBackgroundColor=#ffffff;imageAspect=0;aspect=fixed;image=https://cdn1.iconfinder.com/data/icons/logotypes/32/windows-128.png;rounded=0;sketch=0;strokeColor=#1A1A1A;strokeWidth=5;fillColor=#9AC7BF;gradientColor=none;fontColor=#E4FDE1;" vertex="1" parent="1">
          <mxGeometry x="1780" y="940" width="50" height="50" as="geometry" />
        </mxCell>
        <mxCell id="hiVBW5uq49wSX4w3Utvu-82" value="" style="verticalLabelPosition=bottom;aspect=fixed;html=1;verticalAlign=top;strokeColor=none;shape=mxgraph.citrix.tower_server;rounded=0;shadow=0;comic=0;fontFamily=Verdana;fillColor=#F45B69;fontColor=#E4FDE1;" vertex="1" parent="1">
          <mxGeometry x="650" y="870" width="65" height="85" as="geometry" />
        </mxCell>
        <mxCell id="hiVBW5uq49wSX4w3Utvu-83" value="&lt;div style=&quot;font-size: 14px&quot;&gt;&lt;font style=&quot;font-size: 14px&quot; color=&quot;#1A1A1A&quot;&gt;&lt;span style=&quot;background-color: transparent&quot;&gt;&lt;b&gt;SERVIDOR DE BASE DE DATOS&lt;/b&gt;&lt;br&gt;&lt;/span&gt;&lt;/font&gt;&lt;/div&gt;&lt;div style=&quot;font-size: 14px&quot;&gt;&lt;font style=&quot;font-size: 14px&quot; color=&quot;#1A1A1A&quot;&gt;&lt;span style=&quot;background-color: transparent&quot;&gt;&lt;b&gt;------------------------------------------&lt;/b&gt;&lt;/span&gt;&lt;/font&gt;&lt;/div&gt;&lt;div style=&quot;font-size: 14px&quot;&gt;&lt;font style=&quot;font-size: 14px&quot; color=&quot;#1A1A1A&quot;&gt;&lt;span style=&quot;background-color: transparent&quot;&gt;&lt;b&gt;LIMDBSMWF01&lt;/b&gt;&lt;br&gt;&lt;/span&gt;&lt;/font&gt;&lt;/div&gt;&lt;div style=&quot;font-size: 14px&quot;&gt;&lt;font style=&quot;font-size: 14px&quot; color=&quot;#1A1A1A&quot;&gt;&lt;span style=&quot;background-color: transparent&quot;&gt;&lt;b&gt;IP: 172.19.44.104&lt;/b&gt;&lt;/span&gt;&lt;/font&gt;&lt;/div&gt;&lt;div style=&quot;font-size: 14px&quot;&gt;&lt;font style=&quot;font-size: 14px&quot; color=&quot;#1A1A1A&quot;&gt;&lt;span style=&quot;background-color: transparent&quot;&gt;&lt;b&gt;SERVICE: DATABASE SMALLWORD SWMFS&lt;br&gt;&lt;/b&gt;&lt;/span&gt;&lt;/font&gt;&lt;/div&gt;&lt;div style=&quot;font-size: 14px&quot;&gt;&lt;font style=&quot;font-size: 14px&quot; color=&quot;#1A1A1A&quot;&gt;&lt;span style=&quot;background-color: transparent&quot;&gt;&lt;b&gt;SO: WINDOWS SERVER 2012&lt;br&gt;&lt;/b&gt;&lt;/span&gt;&lt;/font&gt;&lt;/div&gt;" style="text;html=1;align=center;verticalAlign=middle;whiteSpace=wrap;rounded=0;sketch=0;fontColor=#E4FDE1;strokeColor=#000000;strokeWidth=2;" vertex="1" parent="1">
          <mxGeometry x="270" y="780" width="410" height="135" as="geometry" />
        </mxCell>
        <mxCell id="hiVBW5uq49wSX4w3Utvu-86" value="" style="image;html=1;image=img/lib/clip_art/computers/Database_128x128.png;rounded=0;sketch=0;strokeColor=#CC99FF;strokeWidth=5;fillColor=#9AC7BF;gradientColor=none;fontColor=#E4FDE1;" vertex="1" parent="1">
          <mxGeometry x="690" y="915" width="80" height="65" as="geometry" />
        </mxCell>
        <mxCell id="hiVBW5uq49wSX4w3Utvu-90" style="edgeStyle=orthogonalEdgeStyle;curved=0;rounded=1;sketch=0;orthogonalLoop=1;jettySize=auto;html=1;entryX=0.487;entryY=1;entryDx=0;entryDy=0;entryPerimeter=0;strokeWidth=4;fillColor=#F45B69;fontColor=#E4FDE1;strokeColor=#66CC00;" edge="1" parent="1" source="hiVBW5uq49wSX4w3Utvu-87" target="hiVBW5uq49wSX4w3Utvu-39">
          <mxGeometry relative="1" as="geometry" />
        </mxCell>
        <mxCell id="hiVBW5uq49wSX4w3Utvu-91" style="edgeStyle=orthogonalEdgeStyle;curved=0;rounded=1;sketch=0;orthogonalLoop=1;jettySize=auto;html=1;entryX=0.5;entryY=0;entryDx=0;entryDy=0;strokeWidth=4;fillColor=#F45B69;fontColor=#E4FDE1;strokeColor=#66CC00;" edge="1" parent="1" source="hiVBW5uq49wSX4w3Utvu-87" target="hiVBW5uq49wSX4w3Utvu-69">
          <mxGeometry relative="1" as="geometry" />
        </mxCell>
        <mxCell id="hiVBW5uq49wSX4w3Utvu-92" style="edgeStyle=orthogonalEdgeStyle;curved=0;rounded=1;sketch=0;orthogonalLoop=1;jettySize=auto;html=1;strokeWidth=4;fillColor=#F45B69;fontColor=#E4FDE1;strokeColor=#66CC00;" edge="1" parent="1" source="hiVBW5uq49wSX4w3Utvu-87" target="hiVBW5uq49wSX4w3Utvu-77">
          <mxGeometry relative="1" as="geometry" />
        </mxCell>
        <mxCell id="hiVBW5uq49wSX4w3Utvu-93" style="edgeStyle=orthogonalEdgeStyle;curved=0;rounded=1;sketch=0;orthogonalLoop=1;jettySize=auto;html=1;entryX=0.5;entryY=1;entryDx=0;entryDy=0;strokeWidth=4;fillColor=#F45B69;fontColor=#E4FDE1;strokeColor=#66CC00;" edge="1" parent="1" source="hiVBW5uq49wSX4w3Utvu-87" target="hiVBW5uq49wSX4w3Utvu-41">
          <mxGeometry relative="1" as="geometry" />
        </mxCell>
        <mxCell id="hiVBW5uq49wSX4w3Utvu-87" value="" style="verticalLabelPosition=bottom;aspect=fixed;html=1;verticalAlign=top;strokeColor=none;align=center;outlineConnect=0;shape=mxgraph.citrix.router;rounded=0;sketch=0;fillColor=#9AC7BF;gradientColor=none;fontColor=#E4FDE1;" vertex="1" parent="1">
          <mxGeometry x="849.5799999999999" y="620" width="90.42" height="60" as="geometry" />
        </mxCell>
        <mxCell id="hiVBW5uq49wSX4w3Utvu-94" value="&lt;font style=&quot;font-size: 18px&quot;&gt;&lt;b&gt;SMALLWORD ARQUITECTURA PROD&lt;/b&gt;&lt;/font&gt;" style="text;html=1;fillColor=none;align=center;verticalAlign=middle;whiteSpace=wrap;rounded=0;sketch=0;fontColor=#E4FDE1;strokeColor=#66FFB3;strokeWidth=4;" vertex="1" parent="1">
          <mxGeometry x="835" y="20" width="400" height="30" as="geometry" />
        </mxCell>
      </root>
    </mxGraphModel>
  </diagram>
</mxfile>
